<svg width="276" height="2192" viewBox="0 0 276 2192" fill="none" xmlns="http://www.w3.org/2000/svg">
<g clip-path="url(#clip0_25_2)">
<path d="M64.2845 188.406L100.657 126.681L156.358 115.082L179.599 166.89L150.741 232.432L60.123 261.683L73.1361 215.662L64.2885 188.406H64.2845Z" fill="#E16162"/>
<path d="M0.0157782 24.2919L75.2896 0L123.133 29.1558L130.872 73.7919L89.9475 93.7586L37.3706 69.333L29.4618 45.0175L0 24.3116L0.0157782 24.2919Z" fill="#E16162"/>
<path d="M73.499 47.8642L169.454 94.0495L174.381 90.5225L74.5246 39.6503L73.503 47.8603L73.499 47.8642Z" fill="#DB433B"/>
<path d="M269.022 56.9432L260.423 65.5189L171.079 94.8949L122.234 192.251L117.989 183.951L146.698 129.06L164.488 88.6745L269.022 56.9432Z" fill="#DB433B"/>
<path d="M105.402 241.37L163.572 228.025L221.336 279.373L191.922 350.715L133.751 364.06L1.64453 329.805L105.394 241.386V241.37H105.402Z" fill="#004643"/>
<path d="M84.9382 307.864L83.9561 315.225L259.287 274.965L255.607 272.488L84.9343 307.868L84.9382 307.864Z" fill="#DB433B"/>
<path d="M151.62 331.727L156.113 335.526L175.575 288.865L168.878 289.372L151.624 331.727H151.62Z" fill="#DB433B"/>
<path d="M133.851 264.034L171.71 292.753L175.998 290.736L138.024 257.251L133.855 264.03L133.851 264.034Z" fill="#DB433B"/>
<path d="M115.43 328.098L123.256 331.338L137.322 297.605L131.946 296.689L115.434 328.098H115.43Z" fill="#DB433B"/>
<path d="M106.151 282.149L131.59 302.571L136.319 299.115L108.877 274.929L106.151 282.149Z" fill="#DB433B"/>
<path d="M27.5176 509.583L28.91 416.871L109.556 338.821L161.427 339.587L201.997 381.196L201.208 432.937L120.554 510.96L27.5176 509.579V509.583Z" fill="#F9BC60"/>
<path d="M72.5518 457.724L224.515 310.648L248.636 317.769L263.989 326.769L255.397 335.101L243.508 322.88L225.691 316.577L86.8981 454.59L72.5518 457.724Z" fill="#DB433B"/>
<path d="M137.826 404.021L130.99 408.979L129.365 432.465L133.456 440.14L137.822 406.994L137.83 404.025L137.826 404.021Z" fill="#DB433B"/>
<path d="M153.096 383.917L106.526 386.905L110.956 392.705L151.309 390.298L153.092 383.917H153.096Z" fill="#DB433B"/>
<path d="M104.468 430.967L68.1265 435.147L63.5508 442.327L101.624 437.675L104.436 430.975L104.464 430.967H104.468Z" fill="#DB433B"/>
<path d="M69.2028 524.277L99.8993 529.656L133.787 508.844L183.93 550.661L198.86 614.124L165.237 634.767L158.89 669.345L125.058 659.444L98.4201 675.805L83.3361 651.403L31.2129 644.597L47.2199 592.965L33.3351 570.51L60.229 553.995L69.1949 524.262L69.2068 524.273L69.2028 524.277Z" fill="#ABD1C6"/>
<path d="M84.0146 604.152L89.1071 607.533L275.996 504.94L273.392 499.246L84.0146 604.152Z" fill="#DB433B"/>
<path d="M158.303 566.401L152.781 600.857L147.207 591.986L154.323 570.262L117.362 557.967L117.244 550.311L158.315 566.413L158.303 566.401Z" fill="#DB433B"/>
<path d="M123.776 587.606L120.842 619.569L112.534 619.927L119.781 591.46L97.8173 584.716L93.8057 575.861L123.757 587.622L123.768 587.61L123.776 587.606Z" fill="#DB433B"/>
<path d="M154.381 647.887L207.443 679.855L216.145 728.431L171.54 750.477L119.377 721.534L110.51 694.694L71.5498 675.136L154.381 647.891V647.887Z" fill="#001E1D"/>
<path d="M263.914 754.767L262.609 746.856L154.098 695.194L148.726 697.962L263.914 754.767Z" fill="#DB433B"/>
<path d="M64.2845 905.957L100.657 844.232L156.358 832.633L179.599 884.441L150.741 949.983L60.123 979.233L73.1361 933.213L64.2885 905.957H64.2845Z" fill="#E16162"/>
<path d="M0.0157782 741.839L75.2896 717.547L123.133 746.703L130.872 791.339L89.9475 811.305L37.3706 786.88L29.4618 762.564L0 741.858L0.0157782 741.839Z" fill="#E16162"/>
<path d="M73.499 765.411L169.454 811.596L174.381 808.069L74.5207 757.197L73.499 765.407V765.411Z" fill="#DB433B"/>
<path d="M269.022 774.49L260.423 783.066L171.079 812.442L122.234 909.798L117.989 901.498L146.698 846.607L164.488 806.221L269.022 774.49Z" fill="#DB433B"/>
<path d="M105.402 958.921L163.572 945.575L221.336 996.923L191.922 1068.27L133.751 1081.61L1.64453 1047.36L105.394 958.936V958.921H105.402Z" fill="#004643"/>
<path d="M84.9382 1025.41L83.9561 1032.78L259.287 992.516L255.607 990.038L84.9343 1025.42L84.9382 1025.41Z" fill="#DB433B"/>
<path d="M151.62 1049.27L156.113 1053.07L175.575 1006.41L168.878 1006.92L151.624 1049.27H151.62Z" fill="#DB433B"/>
<path d="M133.851 981.584L171.71 1010.3L175.998 1008.29L138.024 974.802L133.855 981.581L133.851 981.584Z" fill="#DB433B"/>
<path d="M115.43 1045.64L123.256 1048.88L137.322 1015.15L131.946 1014.24L115.434 1045.64H115.43Z" fill="#DB433B"/>
<path d="M106.151 999.696L131.59 1020.12L136.319 1016.66L108.877 992.477L106.151 999.696Z" fill="#DB433B"/>
<path d="M27.5176 1227.13L28.91 1134.42L109.556 1056.37L161.427 1057.14L201.997 1098.75L201.208 1150.49L120.554 1228.51L27.5176 1227.13V1227.13Z" fill="#F9BC60"/>
<path d="M72.5518 1175.27L224.515 1028.19L248.636 1035.32L263.989 1044.32L255.397 1052.65L243.508 1040.43L225.691 1034.12L86.8981 1172.14L72.5518 1175.27Z" fill="#DB433B"/>
<path d="M137.826 1121.57L130.99 1126.53L129.365 1150.02L133.456 1157.69L137.822 1124.54L137.83 1121.58L137.826 1121.57Z" fill="#DB433B"/>
<path d="M153.096 1101.47L106.526 1104.46L110.956 1110.26L151.309 1107.85L153.092 1101.47H153.096Z" fill="#DB433B"/>
<path d="M104.468 1148.51L68.1265 1152.69L63.5508 1159.87L101.624 1155.22L104.436 1148.52L104.464 1148.51H104.468Z" fill="#DB433B"/>
<path d="M69.2028 1241.82L99.8993 1247.2L133.787 1226.39L183.93 1268.21L198.86 1331.67L165.237 1352.31L158.89 1386.89L125.058 1376.99L98.4201 1393.35L83.3361 1368.95L31.2129 1362.14L47.2199 1310.51L33.3351 1288.06L60.229 1271.54L69.1949 1241.81L69.2068 1241.82L69.2028 1241.82Z" fill="#ABD1C6"/>
<path d="M84.0146 1321.7L89.1071 1325.08L275.996 1222.49L273.392 1216.79L84.0146 1321.7Z" fill="#DB433B"/>
<path d="M158.303 1283.95L152.781 1318.41L147.207 1309.54L154.323 1287.81L117.362 1275.52L117.244 1267.86L158.315 1283.96L158.303 1283.95Z" fill="#DB433B"/>
<path d="M123.776 1305.15L120.842 1337.12L112.534 1337.47L119.781 1309.01L97.8173 1302.26L93.8057 1293.41L123.757 1305.17L123.768 1305.16L123.776 1305.15Z" fill="#DB433B"/>
<path d="M154.381 1365.43L207.443 1397.4L216.145 1445.98L171.54 1468.02L119.377 1439.08L110.51 1412.24L71.5498 1392.68L154.381 1365.44V1365.43Z" fill="#001E1D"/>
<path d="M263.914 1472.32L262.609 1464.41L154.098 1412.74L148.726 1415.51L263.914 1472.32Z" fill="#DB433B"/>
<path d="M64.2845 1625.64L100.657 1563.91L156.358 1552.31L179.599 1604.12L150.741 1669.67L60.123 1698.92L73.1361 1652.9L64.2885 1625.64H64.2845Z" fill="#E16162"/>
<path d="M0.0157782 1461.52L75.2896 1437.23L123.133 1466.38L130.872 1511.02L89.9475 1530.99L37.3706 1506.56L29.4618 1482.25L0 1461.54L0.0157782 1461.52Z" fill="#E16162"/>
<path d="M73.499 1485.09L169.454 1531.28L174.381 1527.75L74.5207 1476.88L73.499 1485.09V1485.09Z" fill="#DB433B"/>
<path d="M269.022 1494.17L260.423 1502.75L171.079 1532.12L122.234 1629.48L117.989 1621.18L146.698 1566.29L164.488 1525.9L269.022 1494.17Z" fill="#DB433B"/>
<path d="M105.402 1678.6L163.572 1665.26L221.336 1716.61L191.922 1787.95L133.751 1801.29L1.64844 1767.04L105.398 1678.62V1678.61L105.402 1678.6Z" fill="#004643"/>
<path d="M84.9382 1745.1L83.9561 1752.46L259.287 1712.2L255.607 1709.72L84.9343 1745.1L84.9382 1745.1Z" fill="#DB433B"/>
<path d="M151.62 1768.96L156.113 1772.75L175.575 1726.09L168.878 1726.6L151.624 1768.96H151.62Z" fill="#DB433B"/>
<path d="M133.851 1701.27L171.71 1729.99L175.998 1727.97L138.024 1694.48L133.855 1701.26L133.851 1701.27Z" fill="#DB433B"/>
<path d="M115.43 1765.33L123.256 1768.57L137.322 1734.83L131.946 1733.92L115.434 1765.33H115.43Z" fill="#DB433B"/>
<path d="M106.151 1719.38L131.59 1739.8L136.319 1736.34L108.877 1712.16L106.151 1719.38Z" fill="#DB433B"/>
<path d="M27.5176 1946.82L28.91 1854.1L109.556 1776.05L161.427 1776.82L201.997 1818.43L201.208 1870.17L120.554 1948.19L27.5176 1946.81V1946.82Z" fill="#F9BC60"/>
<path d="M72.5518 1894.95L224.515 1747.88L248.636 1755L263.989 1764L255.397 1772.33L243.508 1760.11L225.691 1753.81L86.8981 1891.82L72.5518 1894.95Z" fill="#DB433B"/>
<path d="M137.826 1841.25L130.99 1846.21L129.365 1869.7L133.456 1877.37L137.822 1844.23L137.83 1841.26L137.826 1841.25Z" fill="#DB433B"/>
<path d="M153.096 1821.15L106.526 1824.14L110.956 1829.94L151.309 1827.53L153.092 1821.15H153.096Z" fill="#DB433B"/>
<path d="M104.468 1868.2L68.1265 1872.38L63.5508 1879.56L101.624 1874.9L104.436 1868.2L104.464 1868.2H104.468Z" fill="#DB433B"/>
<path d="M69.2028 1961.51L99.8993 1966.89L133.787 1946.07L183.93 1987.89L198.86 2051.35L165.237 2072L158.89 2106.57L125.058 2096.67L98.4201 2113.03L83.3361 2088.63L31.2129 2081.83L47.2199 2030.19L33.3351 2007.74L60.229 1991.22L69.1949 1961.49L69.2068 1961.5L69.2028 1961.51Z" fill="#ABD1C6"/>
<path d="M84.0146 2041.38L89.1071 2044.76L275.996 1942.17L273.392 1936.48L84.0146 2041.38Z" fill="#DB433B"/>
<path d="M158.303 2003.63L152.781 2038.09L147.207 2029.22L154.323 2007.49L117.362 1995.2L117.244 1987.54L158.315 2003.64L158.303 2003.63Z" fill="#DB433B"/>
<path d="M123.776 2024.83L120.842 2056.8L112.534 2057.16L119.781 2028.69L97.8173 2021.94L93.8057 2013.09L123.757 2024.85L123.768 2024.84L123.776 2024.83Z" fill="#DB433B"/>
<path d="M154.381 2085.12L207.443 2117.08L216.145 2165.66L171.54 2187.71L119.377 2158.76L110.51 2131.92L71.5498 2112.37L154.381 2085.12V2085.12Z" fill="#001E1D"/>
<path d="M263.914 2192L262.609 2184.09L154.098 2132.43L148.726 2135.19L263.914 2192Z" fill="#DB433B"/>
</g>
<defs>
<clipPath id="clip0_25_2">
<rect width="276" height="2192" fill="white"/>
</clipPath>
</defs>
</svg>
